<svg width="184" height="24" viewBox="0 0 237 24" fill="none" xmlns="http://www.w3.org/2000/svg">
<g filter="url(#filter0_dd_510_811)">
<path d="M15.6407 10.5769L15.2191 12.9374H18.6334V16.5062H14.5588L13.519 22H9.75349L10.7792 16.5062H8.41869L7.4211 22H3.6696L4.68124 16.5062H1.51987V12.9374H5.36972L5.80529 10.5769H2.46126V6.92377H6.49376L7.5054 1.45811H11.2709L10.2312 6.92377H12.5636L13.5752 1.45811H17.3408L16.3151 6.92377H19.5327V10.5769H15.6407ZM9.12121 12.9374H11.4396L11.8751 10.5769H9.54273L9.12121 12.9374ZM39.7092 11.2935C39.7092 13.6821 39.2643 15.6679 38.3744 17.2509C37.4846 18.8339 36.2294 20.0236 34.6089 20.8198C32.9978 21.6066 31.1009 22 28.9184 22H22.2725V1.45811H29.3821C31.5927 1.45811 33.4661 1.83747 35.0023 2.5962C36.5385 3.35493 37.7047 4.46492 38.5009 5.92618C39.3065 7.38744 39.7092 9.17654 39.7092 11.2935ZM33.9485 11.4902C33.9485 10.2444 33.7799 9.21401 33.4427 8.39907C33.1149 7.57478 32.6184 6.96124 31.9533 6.55845C31.2883 6.1463 30.4499 5.94023 29.4383 5.94023H27.8225V17.4476H29.0589C30.745 17.4476 31.9814 16.9605 32.7683 15.9864C33.5551 15.0028 33.9485 13.5041 33.9485 11.4902ZM56.0079 22L54.9962 18.1502H48.3222L47.2825 22H41.1846L47.8867 1.3738H55.2913L62.0777 22H56.0079ZM53.8441 13.5978L52.9589 10.2256C52.8652 9.86033 52.7294 9.34046 52.5514 8.66604C52.3735 7.98224 52.1955 7.27972 52.0175 6.55845C51.8489 5.82783 51.7178 5.22834 51.6241 4.75998C51.5398 5.22834 51.418 5.80909 51.2588 6.50225C51.1089 7.18604 50.9497 7.86515 50.7811 8.53958C50.6218 9.21401 50.4813 9.77603 50.3596 10.2256L49.4744 13.5978H53.8441ZM73.3743 22H67.8244V5.99643H62.8083V1.45811H78.3763V5.99643H73.3743V22ZM100.534 11.701C100.534 13.284 100.342 14.7265 99.958 16.0285C99.5833 17.3212 98.9932 18.4358 98.1876 19.3725C97.382 20.3093 96.347 21.0305 95.0824 21.5363C93.8179 22.0328 92.3051 22.281 90.5441 22.281C88.8206 22.281 87.3265 22.0328 86.062 21.5363C84.8068 21.0305 83.7717 20.3139 82.9568 19.3866C82.1419 18.4499 81.5377 17.3305 81.1443 16.0285C80.7509 14.7265 80.5542 13.2746 80.5542 11.6729C80.5542 9.53717 80.9054 7.6825 81.608 6.10884C82.3199 4.52581 83.4158 3.30341 84.8958 2.44165C86.3758 1.57051 88.2679 1.13494 90.5722 1.13494C92.914 1.13494 94.8155 1.57051 96.2767 2.44165C97.7473 3.31278 98.8246 4.53986 99.5083 6.12289C100.192 7.70591 100.534 9.56527 100.534 11.701ZM86.3992 11.701C86.3992 12.9374 86.5397 14.0006 86.8207 14.8904C87.1017 15.7803 87.5467 16.4641 88.1555 16.9418C88.7644 17.4195 89.5606 17.6584 90.5441 17.6584C91.5651 17.6584 92.3754 17.4195 92.9748 16.9418C93.5837 16.4641 94.0193 15.7803 94.2815 14.8904C94.5532 14.0006 94.689 12.9374 94.689 11.701C94.689 9.84628 94.3799 8.38034 93.7617 7.30313C93.1435 6.22592 92.0803 5.68732 90.5722 5.68732C89.5699 5.68732 88.7597 5.93086 88.1415 6.41795C87.5326 6.90503 87.0877 7.59819 86.8067 8.49743C86.535 9.39666 86.3992 10.4645 86.3992 11.701ZM117.676 15.7616C117.676 16.8762 117.395 17.9347 116.833 18.937C116.271 19.9299 115.395 20.7355 114.205 21.3537C113.025 21.9719 111.498 22.281 109.625 22.281C108.688 22.281 107.864 22.2389 107.152 22.1546C106.449 22.0703 105.794 21.9344 105.185 21.7471C104.576 21.5504 103.944 21.2975 103.288 20.9884V16.0426C104.403 16.6046 105.527 17.0355 106.66 17.3352C107.793 17.6256 108.819 17.7708 109.737 17.7708C110.29 17.7708 110.739 17.7052 111.086 17.5741C111.442 17.4429 111.704 17.265 111.873 17.0402C112.041 16.806 112.126 16.539 112.126 16.2393C112.126 15.8833 111.999 15.5836 111.746 15.34C111.503 15.0871 111.109 14.8249 110.566 14.5532C110.023 14.2816 109.306 13.9444 108.416 13.5416C107.658 13.1856 106.969 12.8203 106.351 12.4456C105.742 12.071 105.218 11.6448 104.777 11.167C104.346 10.6799 104.014 10.1132 103.78 9.46692C103.546 8.82059 103.428 8.05718 103.428 7.17668C103.428 5.85593 103.752 4.75062 104.398 3.86075C105.054 2.96152 105.962 2.28709 107.124 1.83747C108.295 1.38785 109.643 1.16305 111.17 1.16305C112.51 1.16305 113.713 1.31292 114.781 1.61266C115.859 1.91241 116.823 2.2543 117.676 2.63835L115.976 6.92377C115.095 6.52099 114.229 6.20251 113.376 5.96833C112.524 5.72479 111.732 5.60302 111.002 5.60302C110.524 5.60302 110.131 5.6639 109.821 5.78567C109.522 5.89808 109.297 6.05263 109.147 6.24934C109.007 6.44605 108.936 6.67086 108.936 6.92377C108.936 7.24225 109.058 7.52794 109.302 7.78085C109.554 8.03376 109.971 8.31009 110.552 8.60983C111.142 8.90021 111.943 9.27958 112.955 9.74793C113.957 10.1975 114.809 10.6846 115.512 11.2092C116.214 11.7244 116.748 12.3473 117.114 13.0779C117.488 13.7992 117.676 14.6937 117.676 15.7616ZM132.906 22H121.455V1.45811H132.906V3.57974H123.844V10.1975H132.359V12.3051H123.844V19.8643H132.906V22ZM153.519 22H150.793L139.566 4.75998H139.454C139.604 6.78326 139.679 8.63793 139.679 10.324V22H137.473V1.45811H140.171L151.369 18.6279H151.481C151.463 18.375 151.42 17.5647 151.355 16.1971C151.289 14.8202 151.266 13.8366 151.285 13.2465V1.45811H153.519V22ZM164.028 22H158.563V1.45811H170.702V5.91213H164.028V9.83223H170.183V14.2863H164.028V22ZM191.539 1.45811V13.8226C191.539 15.5461 191.212 17.0448 190.556 18.3188C189.9 19.5833 188.917 20.5622 187.605 21.2553C186.294 21.9391 184.65 22.281 182.674 22.281C179.845 22.281 177.686 21.5551 176.196 20.1032C174.707 18.6513 173.962 16.5999 173.962 13.949V1.45811H179.54V13.5135C179.54 14.9654 179.812 16.0192 180.355 16.6748C180.898 17.3305 181.699 17.6584 182.758 17.6584C183.517 17.6584 184.135 17.5179 184.612 17.2369C185.09 16.9465 185.437 16.4922 185.652 15.874C185.877 15.2557 185.989 14.4595 185.989 13.4854V1.45811H191.539ZM204.101 9.97274H212.966V21.0446C211.908 21.4099 210.695 21.7096 209.327 21.9438C207.96 22.1686 206.527 22.281 205.028 22.281C203.051 22.281 201.319 21.897 199.829 21.1289C198.34 20.3608 197.178 19.1946 196.345 17.6303C195.511 16.0566 195.094 14.0708 195.094 11.6729C195.094 9.51843 195.506 7.65908 196.331 6.09479C197.155 4.52113 198.368 3.3081 199.97 2.4557C201.581 1.59393 203.553 1.16305 205.885 1.16305C207.168 1.16305 208.386 1.28482 209.538 1.52836C210.69 1.7719 211.693 2.08101 212.545 2.4557L210.789 6.81136C210.049 6.44605 209.281 6.17441 208.484 5.99643C207.688 5.80909 206.831 5.71542 205.913 5.71542C204.686 5.71542 203.698 5.99175 202.948 6.5444C202.208 7.09706 201.67 7.83705 201.333 8.76439C200.995 9.68236 200.827 10.6987 200.827 11.8134C200.827 13.0873 201.005 14.1645 201.361 15.045C201.726 15.9161 202.255 16.5812 202.948 17.0402C203.651 17.4898 204.499 17.7146 205.492 17.7146C205.819 17.7146 206.218 17.6912 206.686 17.6443C207.164 17.5975 207.524 17.5413 207.768 17.4757V14.2582H204.101V9.97274ZM229.757 22L228.745 18.1502H222.071L221.031 22H214.934L221.636 1.3738H229.04L235.827 22H229.757ZM227.593 13.5978L226.708 10.2256C226.614 9.86033 226.478 9.34046 226.3 8.66604C226.122 7.98224 225.945 7.27972 225.767 6.55845C225.598 5.82783 225.467 5.22834 225.373 4.75998C225.289 5.22834 225.167 5.80909 225.008 6.50225C224.858 7.18604 224.699 7.86515 224.53 8.53958C224.371 9.21401 224.23 9.77603 224.109 10.2256L223.223 13.5978H227.593Z" fill="white"/>
</g>
<defs>
<filter id="filter0_dd_510_811" x="0.52002" y="0.134766" width="236.307" height="23.1465" filterUnits="userSpaceOnUse" color-interpolation-filters="sRGB">
<feFlood flood-opacity="0" result="BackgroundImageFix"/>
<feColorMatrix in="SourceAlpha" type="matrix" values="0 0 0 0 0 0 0 0 0 0 0 0 0 0 0 0 0 0 127 0" result="hardAlpha"/>
<feOffset dx="1" dy="1"/>
<feComposite in2="hardAlpha" operator="out"/>
<feColorMatrix type="matrix" values="0 0 0 0 1 0 0 0 0 0 0 0 0 0 0.9 0 0 0 0.74 0"/>
<feBlend mode="normal" in2="BackgroundImageFix" result="effect1_dropShadow_510_811"/>
<feColorMatrix in="SourceAlpha" type="matrix" values="0 0 0 0 0 0 0 0 0 0 0 0 0 0 0 0 0 0 127 0" result="hardAlpha"/>
<feOffset dx="-1" dy="-1"/>
<feComposite in2="hardAlpha" operator="out"/>
<feColorMatrix type="matrix" values="0 0 0 0 0 0 0 0 0 1 0 0 0 0 0.28 0 0 0 1 0"/>
<feBlend mode="normal" in2="effect1_dropShadow_510_811" result="effect2_dropShadow_510_811"/>
<feBlend mode="normal" in="SourceGraphic" in2="effect2_dropShadow_510_811" result="shape"/>
</filter>
</defs>
</svg>
